<?xml version="1.0" encoding="UTF-8"?>
<!DOCTYPE svg PUBLIC "-//W3C//DTD SVG 1.1//EN" "http://www.w3.org/Graphics/SVG/1.1/DTD/svg11.dtd">
<!-- Creator: CorelDRAW -->
<svg xmlns="http://www.w3.org/2000/svg" xml:space="preserve" width="1.70666in" height="1.70666in" version="1.1" style="shape-rendering:geometricPrecision; text-rendering:geometricPrecision; image-rendering:optimizeQuality; fill-rule:evenodd; clip-rule:evenodd;fill:white"
viewBox="0 0 1707 1707"
 xmlns:xlink="http://www.w3.org/1999/xlink">
 <defs>
  <style type="text/css">
   <![CDATA[
    .fil0 {fill:black}
   ]]>
  </style>
 </defs>
 <g id="Layer_x0020_1">
  <metadata id="CorelCorpID_0Corel-Layer"/>
  <path d="M857 1703c-200,0 -394,-71 -547,-200 -153,-129 -256,-308 -290,-504l-12 -66c-2,-13 7,-25 19,-27l132 -23c12,-2 24,7 27,19l11 66c55,322 333,555 660,555 369,0 670,-300 670,-670 0,-369 -301,-669 -670,-669 -244,0 -468,132 -586,345l75 42c8,4 13,13 12,22 0,9 -6,17 -14,20l-265 111c-7,2 -14,2 -21,-1 -6,-4 -10,-10 -11,-17l-47 -284c-1,-9 3,-17 10,-23 7,-5 17,-5 25,-1l78 44c150,-271 435,-438 744,-438 227,0 440,88 601,249 160,160 249,373 249,600 0,227 -89,441 -249,601 -161,161 -374,249 -601,249z"/>
  <path d="M621 1172c-4,0 -8,-1 -12,-3 -7,-4 -12,-12 -12,-21l0 -590c0,-8 5,-16 12,-20 8,-4 17,-4 24,1l466 295c6,4 10,11 10,19 0,8 -4,16 -10,20l-466 295c-4,2 -8,4 -12,4z"/>
 </g>
</svg>
